<?xml version="1.0" encoding="iso-8859-1"?>
<!-- Generator: Adobe Illustrator 19.0.0, SVG Export Plug-In . SVG Version: 6.00 Build 0)  -->
<svg xmlns="http://www.w3.org/2000/svg" xmlns:xlink="http://www.w3.org/1999/xlink" version="1.1" id="Layer_1" x="0px" y="0px" viewBox="0 0 512 512" style="enable-background:new 0 0 512 512;" xml:space="preserve" width="512px" height="512px">
<g>
	<g>
		<path d="M365.17,22.988h-0.188c-5.77,0-10.449,4.678-10.449,10.449c0,5.771,4.679,10.449,10.449,10.449h0.188    c5.77,0,10.449-4.678,10.449-10.449C375.619,27.666,370.94,22.988,365.17,22.988z" fill="#FFFFFF"/>
	</g>
</g>
<g>
	<g>
		<path d="M511.985,201.673c0-0.104,0.014-0.207,0.01-0.312c-0.101-3.449-1.898-6.626-4.801-8.489l-40.125-25.754V33.438    c0-5.771-4.679-10.449-10.449-10.449h-46.552c-5.77,0-10.449,4.678-10.449,10.449c0,5.771,4.679,10.449,10.449,10.449h36.103    v185.145l-134.927,98.16l-49.098-35.719c-3.663-2.667-8.631-2.667-12.294,0l-49.098,35.719L65.829,229.033V43.887h252.831    c5.77,0,10.449-4.678,10.449-10.449c0-5.771-4.679-10.449-10.449-10.449H55.38c-5.77,0-10.449,4.678-10.449,10.449v133.68    L4.805,192.871c-2.904,1.863-4.7,5.041-4.801,8.489c-0.003,0.102,0.009,0.202,0.009,0.304c-0.004,0-0.008,0.001-0.014,0.001    v276.898c0,5.771,4.679,10.449,10.449,10.449h491.102c5.77,0,10.449-4.678,10.449-10.449V201.665    C511.995,201.668,511.991,201.671,511.985,201.673z M467.069,191.95l15.979,10.256l-15.979,11.625V191.95z M44.931,191.95v21.88    l-15.979-11.625L44.931,191.95z M20.898,222.188l162.096,117.926L20.898,458.04V222.188z M42.573,468.114L256,312.845    l213.427,155.27H42.573z M491.102,458.04L329.006,340.114l162.096-117.926V458.04z" fill="#FFFFFF"/>
	</g>
</g>
<g>
	<g>
		<path d="M387.841,90.906H124.527c-5.77,0-10.449,4.678-10.449,10.449c0,5.771,4.679,10.449,10.449,10.449h263.314    c5.77,0,10.449-4.678,10.449-10.449C398.29,95.584,393.611,90.906,387.841,90.906z" fill="#FFFFFF"/>
	</g>
</g>
<g>
	<g>
		<path d="M387.775,156.735H124.461c-5.77,0-10.449,4.678-10.449,10.449c0,5.771,4.679,10.449,10.449,10.449h263.314    c5.771,0,10.449-4.678,10.449-10.449C398.224,161.413,393.545,156.735,387.775,156.735z" fill="#FFFFFF"/>
	</g>
</g>
<g>
	<g>
		<path d="M387.775,222.563h-53.812c-5.77,0-10.449,4.678-10.449,10.449c0,5.771,4.679,10.449,10.449,10.449h53.812    c5.771,0,10.449-4.678,10.449-10.449C398.224,227.241,393.545,222.563,387.775,222.563z" fill="#FFFFFF"/>
	</g>
</g>
<g>
	<g>
		<path d="M297.927,222.563h-0.145c-5.77,0-10.449,4.678-10.449,10.449c0,5.771,4.679,10.449,10.449,10.449h0.145    c5.77,0,10.449-4.678,10.449-10.449C308.375,227.241,303.696,222.563,297.927,222.563z" fill="#FFFFFF"/>
	</g>
</g>
<g>
	<g>
		<path d="M262.387,222.563H124.461c-5.77,0-10.449,4.678-10.449,10.449c0,5.771,4.679,10.449,10.449,10.449h137.927    c5.771,0,10.449-4.678,10.449-10.449C272.836,227.241,268.157,222.563,262.387,222.563z" fill="#FFFFFF"/>
	</g>
</g>
<g>
</g>
<g>
</g>
<g>
</g>
<g>
</g>
<g>
</g>
<g>
</g>
<g>
</g>
<g>
</g>
<g>
</g>
<g>
</g>
<g>
</g>
<g>
</g>
<g>
</g>
<g>
</g>
<g>
</g>
</svg>
