<?xml version="1.0" encoding="iso-8859-1"?>
<!-- Generator: Adobe Illustrator 19.0.0, SVG Export Plug-In . SVG Version: 6.00 Build 0)  -->
<svg xmlns="http://www.w3.org/2000/svg" xmlns:xlink="http://www.w3.org/1999/xlink" version="1.1" id="Layer_1" x="0px" y="0px" viewBox="0 0 485 485" style="enable-background:new 0 0 485 485;" xml:space="preserve" width="512px" height="512px">
<path d="M0,71.483v342.034h485V71.483H0z M227.5,282.409c-16.132-6.083-27.641-21.675-27.641-39.909s11.508-33.826,27.641-39.909  V282.409z M257.5,202.591c16.132,6.083,27.641,21.675,27.641,39.909s-11.508,33.826-27.641,39.909V202.591z M30,188.523h40.651  v107.954H30V188.523z M30,326.477h70.651V158.523H30v-57.04h197.5v69.943c-32.88,6.931-57.641,36.162-57.641,71.074  s24.76,64.143,57.641,71.074v69.943H30V326.477z M257.5,383.517v-69.943c32.88-6.931,57.641-36.162,57.641-71.074  s-24.76-64.143-57.641-71.074v-69.943H455v57.04h-70.651v167.954H455v57.04H257.5z M455,188.523v107.954h-40.651V188.523H455z" fill="#FFFFFF"/>
<g>
</g>
<g>
</g>
<g>
</g>
<g>
</g>
<g>
</g>
<g>
</g>
<g>
</g>
<g>
</g>
<g>
</g>
<g>
</g>
<g>
</g>
<g>
</g>
<g>
</g>
<g>
</g>
<g>
</g>
</svg>
