<svg xmlns="http://www.w3.org/2000/svg" viewBox="4537 401.702 95.5 35.34">
  <defs>
    <style>
      .cls-1 {
        fill: #da544a;
      }

      .cls-2 {
        fill: #4e82a2;
      }

      .cls-3 {
        fill: #334c5b;
      }
    </style>
  </defs>
  <g id="match" transform="translate(4537 380)">
    <g id="Group_410" data-name="Group 410" transform="translate(3.183 24.885)">
      <path id="Path_167" data-name="Path 167" class="cls-1" d="M31.917,100.967a5.911,5.911,0,0,1-6.141-4.775H16v6.367h4.775a1.56,1.56,0,0,1,1.592,1.553v20.73h19.1v-20.73a1.56,1.56,0,0,1,1.592-1.553h4.775V96.192H38.057A5.911,5.911,0,0,1,31.917,100.967Z" transform="translate(-16 -96.192)"/>
      <path id="Path_168" data-name="Path 168" class="cls-1" d="M84.971,97.784c1.173,0,2.189,0,2.741-1.592h-5.48C82.783,97.784,83.8,97.784,84.971,97.784Z" transform="translate(-69.055 -96.192)"/>
    </g>
    <g id="Group_411" data-name="Group 411" transform="translate(60.483 24.885)">
      <path id="Path_169" data-name="Path 169" class="cls-2" d="M319.917,100.967a5.911,5.911,0,0,1-6.141-4.775H304v6.367h4.775a1.56,1.56,0,0,1,1.592,1.553v20.73h19.1v-20.73a1.56,1.56,0,0,1,1.592-1.553h4.775V96.192h-9.776A5.911,5.911,0,0,1,319.917,100.967Z" transform="translate(-304 -96.192)"/>
      <path id="Path_170" data-name="Path 170" class="cls-2" d="M372.971,97.784c1.173,0,2.189,0,2.741-1.592h-5.48C370.783,97.784,371.8,97.784,372.971,97.784Z" transform="translate(-357.055 -96.192)"/>
    </g>
    <g id="Group_412" data-name="Group 412" transform="translate(0 21.702)">
      <path id="Path_171" data-name="Path 171" class="cls-3" d="M38.2,91.3v-9.55a1.56,1.56,0,0,0-1.592-1.553H1.592A1.56,1.56,0,0,0,0,81.745V91.3a1.624,1.624,0,0,0,1.592,1.63H6.367v20.653a1.624,1.624,0,0,0,1.592,1.63H30.242a1.624,1.624,0,0,0,1.592-1.63V92.925h4.775A1.624,1.624,0,0,0,38.2,91.3Zm-16.359-7.92c-.552,1.592-1.568,1.592-2.741,1.592s-2.189,0-2.741-1.592Zm13.176,6.367H30.242A1.56,1.56,0,0,0,28.65,91.3v20.73H9.55V91.3a1.56,1.56,0,0,0-1.592-1.553H3.183V83.375h9.776A5.911,5.911,0,0,0,19.1,88.15a5.911,5.911,0,0,0,6.141-4.775h9.776Z" transform="translate(0 -80.192)"/>
      <path id="Path_172" data-name="Path 172" class="cls-3" d="M324.608,80.192H289.592A1.56,1.56,0,0,0,288,81.745V91.3a1.624,1.624,0,0,0,1.592,1.63h4.775v20.653a1.624,1.624,0,0,0,1.592,1.63h22.283a1.624,1.624,0,0,0,1.592-1.63V92.925h4.775A1.624,1.624,0,0,0,326.2,91.3v-9.55A1.56,1.56,0,0,0,324.608,80.192Zm-14.768,3.183c-.552,1.592-1.568,1.592-2.741,1.592s-2.189,0-2.741-1.592Zm13.176,6.367h-4.775A1.56,1.56,0,0,0,316.65,91.3v20.73h-19.1V91.3a1.56,1.56,0,0,0-1.592-1.553h-4.775V83.375h9.776a6.336,6.336,0,0,0,12.281,0h9.776Z" transform="translate(-230.7 -80.192)"/>
      <path id="Path_173" data-name="Path 173" class="cls-3" d="M255.958,184.192h-4.775A3.155,3.155,0,0,0,248,187.337v4.775a1.624,1.624,0,0,0,1.592,1.63h4.775v3.183H248v1.553a1.624,1.624,0,0,0,1.592,1.63h4.775a3.219,3.219,0,0,0,3.183-3.222v-4.775a1.56,1.56,0,0,0-1.592-1.553h-4.775v-3.183h6.367v-1.63A1.56,1.56,0,0,0,255.958,184.192Z" transform="translate(-198.658 -171.097)"/>
      <path id="Path_174" data-name="Path 174" class="cls-3" d="M193.55,184.192h-3.183v10.445l-1.592,1.592-1.592-1.592V184.192H184v11.1a1.587,1.587,0,0,0,.466,1.125l3.183,3.183a1.591,1.591,0,0,0,2.251,0l3.183-3.183a1.591,1.591,0,0,0,.466-1.125Z" transform="translate(-147.392 -171.097)"/>
      <rect id="Rectangle_49" data-name="Rectangle 49" class="cls-3" width="3.183" height="3.183" transform="translate(39.792 32.157)"/>
      <rect id="Rectangle_50" data-name="Rectangle 50" class="cls-3" width="3.183" height="3.183" transform="translate(46.158 32.157)"/>
      <rect id="Rectangle_51" data-name="Rectangle 51" class="cls-3" width="3.183" height="3.183" transform="translate(52.525 32.157)"/>
    </g>
  </g>
</svg>
