<svg xmlns="http://www.w3.org/2000/svg" viewBox="1813.597 361.725 8.206 8.865">
  <defs>
    <style>
      .cls-1 {
        fill: #fff;
      }
    </style>
  </defs>
  <path id="Path_11" data-name="Path 11" class="cls-1" d="M126.908,115.98a13.4,13.4,0,0,0-2.4-1.542.076.076,0,0,1-.043-.069v-1.628a.759.759,0,0,0,.341-.632v-1.69a1.521,1.521,0,0,0-1.519-1.519h-.36a1.521,1.521,0,0,0-1.519,1.519v1.686a.75.75,0,0,0,.341.632v1.628a.076.076,0,0,1-.043.069,13.24,13.24,0,0,0-2.4,1.542.811.811,0,0,0-.3.632v1.156h8.206v-1.156A.81.81,0,0,0,126.908,115.98Z" transform="translate(1694.597 252.825)"/>
</svg>
