<?xml version="1.0" encoding="iso-8859-1"?>
<!-- Generator: Adobe Illustrator 19.0.0, SVG Export Plug-In . SVG Version: 6.00 Build 0)  -->
<svg xmlns="http://www.w3.org/2000/svg" xmlns:xlink="http://www.w3.org/1999/xlink" version="1.1" id="Capa_1" x="0px" y="0px" viewBox="0 0 480 480" style="enable-background:new 0 0 480 480;" xml:space="preserve" width="512px" height="512px">
<g>
	<g>
		<g>
			<path d="M240,0C107.452,0,0,107.452,0,240s107.452,240,240,240s240-107.452,240-240S372.548,0,240,0z M240,416     c-97.202,0-176-78.798-176-176S142.798,64,240,64s176,78.798,176,176S337.202,416,240,416z" fill="#FFFFFF"/>
			<path d="M304,208H176c-17.673,0-32,14.327-32,32s14.327,32,32,32h128c17.673,0,32-14.327,32-32S321.673,208,304,208z" fill="#FFFFFF"/>
		</g>
	</g>
</g>
<g>
</g>
<g>
</g>
<g>
</g>
<g>
</g>
<g>
</g>
<g>
</g>
<g>
</g>
<g>
</g>
<g>
</g>
<g>
</g>
<g>
</g>
<g>
</g>
<g>
</g>
<g>
</g>
<g>
</g>
</svg>
