<?xml version="1.0" encoding="iso-8859-1"?>
<!-- Generator: Adobe Illustrator 19.0.0, SVG Export Plug-In . SVG Version: 6.00 Build 0)  -->
<svg xmlns="http://www.w3.org/2000/svg" xmlns:xlink="http://www.w3.org/1999/xlink" version="1.1" id="Layer_1" x="0px" y="0px" viewBox="0 0 512 512" style="enable-background:new 0 0 512 512;" xml:space="preserve" width="512px" height="512px">
<g>
	<g>
		<rect x="302" width="30" height="121" fill="#FFFFFF"/>
	</g>
</g>
<g>
	<g>
		<path d="M377,241H135c-8.276,0-15,6.724-15,15v46h272v-46C392,247.724,385.276,241,377,241z" fill="#FFFFFF"/>
	</g>
</g>
<g>
	<g>
		<path d="M362,0v121h15c8.276,0,15-6.724,15-15V0H362z" fill="#FFFFFF"/>
	</g>
</g>
<g>
	<g>
		<path d="M120,0v106c0,8.276,6.724,15,15,15h137V0H120z" fill="#FFFFFF"/>
	</g>
</g>
<g>
	<g>
		<path d="M507.605,64.395l-60-60C444.793,1.582,440.984,0,437,0h-15v106c0,24.814-20.186,45-45,45c-94.402,0-155.864,0-242,0    c-24.814,0-45-20.186-45-45V0H45C20.186,0,0,20.186,0,45v422c0,24.814,20.186,45,45,45h45V256c0-24.814,20.186-45,45-45h242    c24.814,0,45,20.186,45,45v256h45c24.814,0,45-20.186,45-45V75C512,71.016,510.418,67.207,507.605,64.395z" fill="#FFFFFF"/>
	</g>
</g>
<g>
	<g>
		<path d="M120,332v180h272V332H120z M347,452H165c-8.291,0-15-6.709-15-15c0-8.291,6.709-15,15-15h182c8.291,0,15,6.709,15,15    C362,445.291,355.291,452,347,452z M347,392H165c-8.291,0-15-6.709-15-15c0-8.291,6.709-15,15-15h182c8.291,0,15,6.709,15,15    C362,385.291,355.291,392,347,392z" fill="#FFFFFF"/>
	</g>
</g>
<g>
</g>
<g>
</g>
<g>
</g>
<g>
</g>
<g>
</g>
<g>
</g>
<g>
</g>
<g>
</g>
<g>
</g>
<g>
</g>
<g>
</g>
<g>
</g>
<g>
</g>
<g>
</g>
<g>
</g>
</svg>
