<?xml version="1.0" encoding="iso-8859-1"?>
<!-- Generator: Adobe Illustrator 19.0.0, SVG Export Plug-In . SVG Version: 6.00 Build 0)  -->
<svg xmlns="http://www.w3.org/2000/svg" xmlns:xlink="http://www.w3.org/1999/xlink" version="1.1" id="Capa_1" x="0px" y="0px" viewBox="0 0 512 512" style="enable-background:new 0 0 512 512;" xml:space="preserve" width="512px" height="512px">
<g>
	<g>
		<path d="M497,362h-15V90H30v272H15c-8.291,0-15,6.709-15,15c0,8.291,6.709,15,15,15c128.626,0,98.198,0,226,0v32.763    c-17.422,6.213-30,22.707-30,42.237c0,24.814,20.186,45,45,45c24.814,0,45-20.186,45-45c0-19.53-12.578-36.024-30-42.237V392    c127.802,0,97.099,0,226,0c8.291,0,15-6.709,15-15C512,368.709,505.291,362,497,362z M421,226c0,8.291-6.709,15-15,15    c-8.291,0-15-6.709-15-15v-23.789l-94.395,94.395c-5.859,5.859-15.352,5.859-21.211,0L196,217.211l-79.395,79.395    c-5.859,5.859-15.352,5.859-21.211,0c-5.859-5.859-5.859-15.352,0-21.211l90-90c5.859-5.859,15.352-5.859,21.211,0L286,264.789    L369.789,181H346c-8.291,0-15-6.709-15-15s6.709-15,15-15h60c8.307,0,15,6.835,15,15V226z" fill="#FFFFFF"/>
	</g>
</g>
<g>
	<g>
		<path d="M482,0H30C13.431,0,0,13.431,0,30c0,16.569,13.431,30,30,30h452c16.569,0,30-13.431,30-30C512,13.431,498.569,0,482,0z" fill="#FFFFFF"/>
	</g>
</g>
<g>
</g>
<g>
</g>
<g>
</g>
<g>
</g>
<g>
</g>
<g>
</g>
<g>
</g>
<g>
</g>
<g>
</g>
<g>
</g>
<g>
</g>
<g>
</g>
<g>
</g>
<g>
</g>
<g>
</g>
</svg>
